<svg width="376" height="280" viewBox="0 0 376 280" fill="none" xmlns="http://www.w3.org/2000/svg">
<g opacity="0.2">
<mask id="mask0_5_213" style="mask-type:alpha" maskUnits="userSpaceOnUse" x="0" y="0" width="376" height="280">
<rect x="0.877075" width="375" height="280" fill="url(#paint0_linear_5_213)"/>
</mask>
<g mask="url(#mask0_5_213)">
<path d="M375.549 200.88C379.192 204.523 379.192 210.43 375.548 214.073C371.905 217.716 365.999 217.716 362.356 214.073L318.593 170.31C314.95 166.667 314.95 160.761 318.593 157.118C322.236 153.475 328.143 153.475 331.786 157.118L375.549 200.88Z" fill="#F46F17"/>
<path d="M254.7 238.986C248.731 236.237 247.327 228.383 251.973 223.737C254.816 220.894 259.148 220.164 262.765 221.918L268.235 224.569C283.1 231.775 298.634 216.016 291.216 201.256L288.547 195.946C286.794 192.457 287.474 188.237 290.235 185.475C294.645 181.065 302.089 182.328 304.797 187.946L331.374 243.075C334.33 249.206 333.086 256.535 328.274 261.347C323.535 266.087 316.345 267.372 310.257 264.569L254.7 238.986Z" fill="#121212" fill-opacity="0.25"/>
<path d="M389.217 182.429C391.966 188.398 399.819 189.802 404.466 185.156C407.309 182.313 408.039 177.981 406.285 174.364L403.634 168.894C396.428 154.029 412.187 138.495 426.947 145.913L432.256 148.582C435.746 150.336 439.966 149.655 442.728 146.894C447.138 142.484 445.875 135.04 440.257 132.332L385.128 105.755C378.997 102.799 371.668 104.043 366.855 108.855C362.116 113.594 360.831 120.784 363.634 126.872L389.217 182.429Z" fill="#121212" fill-opacity="0.5"/>
<path d="M232.569 339.077C235.317 345.046 243.171 346.45 247.818 341.804C250.66 338.961 251.391 334.629 249.637 331.012L246.986 325.542C239.78 310.677 255.539 295.143 270.299 302.561L275.608 305.23C279.098 306.984 283.318 306.303 286.079 303.542C290.49 299.132 289.226 291.688 283.608 288.98L228.48 262.403C222.349 259.447 215.02 260.691 210.207 265.503C205.468 270.243 204.183 277.432 206.986 283.52L232.569 339.077Z" fill="#121212" fill-opacity="0.5"/>
<path d="M236.339 61.671C239.982 65.314 239.982 71.2205 236.339 74.8636C232.696 78.5066 226.79 78.5066 223.147 74.8636L179.384 31.1008C175.741 27.4577 175.741 21.5512 179.384 17.9082C183.027 14.2652 188.933 14.2652 192.576 17.9082L236.339 61.671Z" fill="#F46F17"/>
<path d="M79.691 218.319C83.334 221.962 83.334 227.869 79.691 231.512C76.048 235.155 70.1415 235.155 66.4984 231.512L22.7357 187.749C19.0926 184.106 19.0926 178.199 22.7357 174.556C26.3787 170.913 32.2852 170.913 35.9282 174.556L79.691 218.319Z" fill="#F46F17"/>
<path d="M115.491 99.7763C109.522 97.0279 108.118 89.1741 112.764 84.5278C115.607 81.685 119.938 80.9548 123.556 82.7084L129.026 85.3597C143.891 92.5655 159.425 76.8068 152.006 62.0463L149.338 56.7371C147.584 53.2478 148.265 49.0273 151.026 46.2659C155.436 41.8559 162.88 43.119 165.588 48.737L192.165 103.865C195.121 109.996 193.877 117.325 189.064 122.138C184.325 126.877 177.136 128.163 171.048 125.359L115.491 99.7763Z" fill="#121212" fill-opacity="0.25"/>
<path d="M250.008 43.2198C252.756 49.1883 260.61 50.5926 265.256 45.9462C268.099 43.1034 268.829 38.772 267.076 35.1543L264.425 29.6848C257.219 14.8193 272.977 -0.714664 287.738 6.704L293.047 9.37245C296.536 11.1262 300.757 10.4458 303.518 7.6844C307.928 3.27435 306.665 -4.16933 301.047 -6.87773L245.919 -33.4548C239.788 -36.4104 232.459 -35.1667 227.646 -30.3541C222.907 -25.6149 221.621 -18.4253 224.425 -12.3375L250.008 43.2198Z" fill="#121212" fill-opacity="0.5"/>
<path d="M93.3598 199.868C96.1082 205.836 103.962 207.241 108.608 202.594C111.451 199.752 112.181 195.42 110.428 191.802L107.776 186.333C100.571 171.467 116.329 155.933 131.09 163.352L136.399 166.021C139.888 167.774 144.109 167.094 146.87 164.333C151.28 159.922 150.017 152.479 144.399 149.77L89.2707 123.193C83.1399 120.238 75.8106 121.481 70.998 126.294C66.2588 131.033 64.9733 138.223 67.7766 144.311L93.3598 199.868Z" fill="#121212" fill-opacity="0.5"/>
<path d="M308.791 40.697C305.148 37.054 299.242 37.054 295.599 40.697C291.956 44.34 291.956 50.2465 295.599 53.8896L339.361 97.6523C343.004 101.295 348.911 101.295 352.554 97.6523C356.197 94.0093 356.197 88.1028 352.554 84.4598L308.791 40.697Z" fill="#F46F17"/>
<path d="M152.143 197.345C148.5 193.702 142.594 193.702 138.951 197.345C135.308 200.988 135.308 206.895 138.951 210.538L182.713 254.3C186.356 257.944 192.263 257.943 195.906 254.3C199.549 250.657 199.549 244.751 195.906 241.108L152.143 197.345Z" fill="#F46F17"/>
<path d="M270.686 161.546C273.434 167.514 281.288 168.918 285.935 164.272C288.777 161.429 289.508 157.098 287.754 153.48L285.103 148.011C277.897 133.145 293.656 117.611 308.416 125.03L313.725 127.698C317.214 129.452 321.435 128.772 324.196 126.01C328.606 121.6 327.343 114.156 321.725 111.448L266.597 84.871C260.466 81.9154 253.137 83.1591 248.324 87.9717C243.585 92.7109 242.299 99.9005 245.103 105.988L270.686 161.546Z" fill="#121212" fill-opacity="0.25"/>
<path d="M114.038 318.194C116.786 324.162 124.64 325.567 129.286 320.92C132.129 318.077 132.859 313.746 131.106 310.128L128.454 304.659C121.249 289.793 137.007 274.259 151.768 281.678L157.077 284.346C160.566 286.1 164.787 285.42 167.548 282.658C171.958 278.248 170.695 270.805 165.077 268.096L109.949 241.519C103.818 238.564 96.4886 239.807 91.676 244.62C86.9368 249.359 85.6513 256.549 88.4546 262.637L114.038 318.194Z" fill="#121212" fill-opacity="0.25"/>
<path d="M170.594 183.676C164.626 180.928 163.222 173.074 167.868 168.428C170.711 165.585 175.042 164.855 178.66 166.608L184.129 169.26C198.995 176.466 214.529 160.707 207.11 145.946L204.442 140.637C202.688 137.148 203.368 132.927 206.13 130.166C210.54 125.756 217.983 127.019 220.692 132.637L247.269 187.765C250.225 193.896 248.981 201.226 244.168 206.038C239.429 210.777 232.239 212.063 226.152 209.259L170.594 183.676Z" fill="#121212" fill-opacity="0.5"/>
<path d="M12.9339 58.1358C9.29083 54.4927 3.38433 54.4927 -0.258702 58.1358C-3.90173 61.7788 -3.90173 67.6853 -0.258704 71.3283L43.5041 115.091C47.1471 118.734 53.0536 118.734 56.6966 115.091C60.3397 111.448 60.3397 105.542 56.6966 101.899L12.9339 58.1358Z" fill="#F46F17"/>
<path d="M131.477 22.3363C134.225 28.3048 142.079 29.709 146.725 25.0627C149.568 22.2199 150.298 17.8885 148.545 14.2708L145.893 8.80125C138.687 -6.06424 154.446 -21.5982 169.207 -14.1795L174.516 -11.5111C178.005 -9.75737 182.226 -10.4377 184.987 -13.1991C189.397 -17.6092 188.134 -25.0529 182.516 -27.7613L127.388 -54.3384C121.257 -57.294 113.927 -56.0503 109.115 -51.2377C104.376 -46.4985 103.09 -39.3088 105.894 -33.221L131.477 22.3363Z" fill="#121212" fill-opacity="0.25"/>
<path d="M-25.1715 178.984C-22.4231 184.953 -14.5693 186.357 -9.92298 181.711C-7.08019 178.868 -6.34996 174.537 -8.10359 170.919L-10.7549 165.449C-17.9607 150.584 -2.20196 135.05 12.5585 142.469L17.8677 145.137C21.357 146.891 25.5775 146.21 28.3389 143.449C32.7489 139.039 31.4858 131.595 25.8678 128.887L-29.2606 102.31C-35.3914 99.3542 -42.7207 100.598 -47.5333 105.411C-52.2725 110.15 -53.558 117.339 -50.7547 123.427L-25.1715 178.984Z" fill="#121212" fill-opacity="0.25"/>
<path d="M31.3851 44.467C25.4165 41.7186 24.0123 33.8648 28.6586 29.2185C31.5014 26.3757 35.8329 25.6454 39.4506 27.3991L44.9201 30.0503C59.7856 37.2562 75.3195 21.4974 67.9009 6.737L65.2324 1.42774C63.4787 -2.06153 64.1591 -6.282 66.9205 -9.04339C71.3305 -13.4534 78.7742 -12.1903 81.4826 -6.57234L108.06 48.5561C111.015 54.6868 109.772 62.0162 104.959 66.8288C100.22 71.568 93.0301 72.8535 86.9423 70.0501L31.3851 44.467Z" fill="#121212" fill-opacity="0.5"/>
</g>
</g>
<defs>
<linearGradient id="paint0_linear_5_213" x1="375.877" y1="-1.49677e-05" x2="0.877067" y2="280" gradientUnits="userSpaceOnUse">
<stop stop-color="#D9D9D9"/>
<stop offset="0.610726" stop-color="#D9D9D9" stop-opacity="0"/>
</linearGradient>
</defs>
</svg>
