<svg width="24" height="25" viewBox="0 0 24 25" fill="none" xmlns="http://www.w3.org/2000/svg">
	<path d="M16.9153 18.4916C15.5008 19.5503 13.7784 20.1368 12 20.1653C6.2076 20.1653 2.89764 13.6654 2.89764 13.6654C3.92695 11.7819 5.35457 10.1364 7.08473 8.83911M10.2623 7.36036C10.8319 7.22945 11.415 7.16401 12 7.16536C17.7924 7.16536 21.1024 13.6654 21.1024 13.6654C20.6001 14.588 20.001 15.4567 19.315 16.2572M13.7543 15.3879C13.527 15.6273 13.253 15.8194 12.9484 15.9526C12.6439 16.0859 12.3152 16.1575 11.9819 16.1633C11.6486 16.169 11.3175 16.1088 11.0084 15.9862C10.6992 15.8637 10.4185 15.6812 10.1827 15.4497C9.94699 15.2183 9.76116 14.9426 9.6363 14.639C9.51145 14.3355 9.45013 14.0104 9.45601 13.6832C9.46189 13.3559 9.53485 13.0331 9.67053 12.7341C9.80621 12.4351 10.0018 12.166 10.2457 11.9429" stroke="#363636" stroke-width="2" stroke-linecap="round" stroke-linejoin="round"/>
	<path d="M3.9303 5.47034L19.7839 20.4703" stroke="#363636" stroke-width="2" stroke-linecap="round" stroke-linejoin="round"/>
</svg>