<svg width="24" height="25" viewBox="0 0 24 25" fill="none" xmlns="http://www.w3.org/2000/svg">
<g clip-path="url(#clip0_5_102)">
<path d="M21.87 12.4703C21.23 11.3603 17.71 5.79033 11.73 5.97033C6.20001 6.11033 3.00001 10.9703 2.13001 12.4703C2.04224 12.6223 1.99603 12.7948 1.99603 12.9703C1.99603 13.1459 2.04224 13.3183 2.13001 13.4703C2.76001 14.5603 6.13001 19.9703 12.02 19.9703H12.27C17.8 19.8303 21.01 14.9703 21.87 13.4703C21.9578 13.3183 22.004 13.1459 22.004 12.9703C22.004 12.7948 21.9578 12.6223 21.87 12.4703ZM12.22 17.9703C7.91001 18.0703 5.10001 14.3803 4.22001 12.9703C5.22001 11.3603 7.83001 8.07033 11.83 7.97033C16.12 7.86033 18.94 11.5603 19.83 12.9703C18.8 14.5803 16.22 17.8703 12.22 17.9703Z" fill="#363636"/>
<path d="M12 9.47034C11.3078 9.47034 10.6311 9.67561 10.0555 10.0602C9.47993 10.4448 9.03133 10.9914 8.76642 11.6309C8.50152 12.2705 8.4322 12.9742 8.56725 13.6532C8.7023 14.3321 9.03564 14.9557 9.52513 15.4452C10.0146 15.9347 10.6383 16.268 11.3172 16.4031C11.9961 16.5381 12.6999 16.4688 13.3394 16.2039C13.9789 15.939 14.5256 15.4904 14.9101 14.9148C15.2947 14.3393 15.5 13.6626 15.5 12.9703C15.5 12.0421 15.1313 11.1518 14.4749 10.4955C13.8185 9.83909 12.9283 9.47034 12 9.47034ZM12 14.4703C11.7033 14.4703 11.4133 14.3824 11.1666 14.2175C10.92 14.0527 10.7277 13.8185 10.6142 13.5444C10.5007 13.2703 10.4709 12.9687 10.5288 12.6777C10.5867 12.3867 10.7296 12.1195 10.9393 11.9097C11.1491 11.6999 11.4164 11.557 11.7074 11.4992C11.9983 11.4413 12.2999 11.471 12.574 11.5845C12.8481 11.698 13.0824 11.8903 13.2472 12.137C13.412 12.3837 13.5 12.6737 13.5 12.9703C13.5 13.3682 13.342 13.7497 13.0607 14.031C12.7794 14.3123 12.3978 14.4703 12 14.4703Z" fill="#363636"/>
</g>
<defs>
<clipPath id="clip0_5_102">
<rect width="24" height="24" fill="white" transform="translate(0 0.970337)"/>
</clipPath>
</defs>
</svg>